<svg width="201" height="60" viewBox="0 0 201 60" fill="none" xmlns="http://www.w3.org/2000/svg">
<rect width="201" height="60" rx="20" fill="#1D8DD0"/>
<path d="M23.7139 43.252C21.8659 43.252 20.2099 42.952 18.7459 42.352C17.2819 41.752 16.1059 40.864 15.2179 39.688C14.3539 38.512 13.8979 37.096 13.8499 35.44H20.4019C20.4979 36.376 20.8219 37.096 21.3739 37.6C21.9259 38.08 22.6459 38.32 23.5339 38.32C24.4459 38.32 25.1659 38.116 25.6939 37.708C26.2219 37.276 26.4859 36.688 26.4859 35.944C26.4859 35.32 26.2699 34.804 25.8379 34.396C25.4299 33.988 24.9139 33.652 24.2899 33.388C23.6899 33.124 22.8259 32.824 21.6979 32.488C20.0659 31.984 18.7339 31.48 17.7019 30.976C16.6699 30.472 15.7819 29.728 15.0379 28.744C14.2939 27.76 13.9219 26.476 13.9219 24.892C13.9219 22.54 14.7739 20.704 16.4779 19.384C18.1819 18.04 20.4019 17.368 23.1379 17.368C25.9219 17.368 28.1659 18.04 29.8699 19.384C31.5739 20.704 32.4859 22.552 32.6059 24.928H25.9459C25.8979 24.112 25.5979 23.476 25.0459 23.02C24.4939 22.54 23.7859 22.3 22.9219 22.3C22.1779 22.3 21.5779 22.504 21.1219 22.912C20.6659 23.296 20.4379 23.86 20.4379 24.604C20.4379 25.42 20.8219 26.056 21.5899 26.512C22.3579 26.968 23.5579 27.46 25.1899 27.988C26.8219 28.54 28.1419 29.068 29.1499 29.572C30.1819 30.076 31.0699 30.808 31.8139 31.768C32.5579 32.728 32.9299 33.964 32.9299 35.476C32.9299 36.916 32.5579 38.224 31.8139 39.4C31.0939 40.576 30.0379 41.512 28.6459 42.208C27.2539 42.904 25.6099 43.252 23.7139 43.252ZM39.8143 20.824C38.7343 20.824 37.8463 20.512 37.1503 19.888C36.4783 19.24 36.1423 18.448 36.1423 17.512C36.1423 16.552 36.4783 15.76 37.1503 15.136C37.8463 14.488 38.7343 14.164 39.8143 14.164C40.8703 14.164 41.7343 14.488 42.4063 15.136C43.1023 15.76 43.4503 16.552 43.4503 17.512C43.4503 18.448 43.1023 19.24 42.4063 19.888C41.7343 20.512 40.8703 20.824 39.8143 20.824ZM42.8743 22.912V43H36.7183V22.912H42.8743ZM54.9675 22.624C56.3835 22.624 57.6195 22.912 58.6755 23.488C59.7555 24.064 60.5835 24.82 61.1595 25.756V22.912H67.3155V42.964C67.3155 44.812 66.9435 46.48 66.1995 47.968C65.4795 49.48 64.3635 50.68 62.8515 51.568C61.3635 52.456 59.5035 52.9 57.2715 52.9C54.2955 52.9 51.8835 52.192 50.0355 50.776C48.1875 49.384 47.1315 47.488 46.8675 45.088H52.9515C53.1435 45.856 53.5995 46.456 54.3195 46.888C55.0395 47.344 55.9275 47.572 56.9835 47.572C58.2555 47.572 59.2635 47.2 60.0075 46.456C60.7755 45.736 61.1595 44.572 61.1595 42.964V40.12C60.5595 41.056 59.7315 41.824 58.6755 42.424C57.6195 43 56.3835 43.288 54.9675 43.288C53.3115 43.288 51.8115 42.868 50.4675 42.028C49.1235 41.164 48.0555 39.952 47.2635 38.392C46.4955 36.808 46.1115 34.984 46.1115 32.92C46.1115 30.856 46.4955 29.044 47.2635 27.484C48.0555 25.924 49.1235 24.724 50.4675 23.884C51.8115 23.044 53.3115 22.624 54.9675 22.624ZM61.1595 32.956C61.1595 31.42 60.7275 30.208 59.8635 29.32C59.0235 28.432 57.9915 27.988 56.7675 27.988C55.5435 27.988 54.4995 28.432 53.6355 29.32C52.7955 30.184 52.3755 31.384 52.3755 32.92C52.3755 34.456 52.7955 35.68 53.6355 36.592C54.4995 37.48 55.5435 37.924 56.7675 37.924C57.9915 37.924 59.0235 37.48 59.8635 36.592C60.7275 35.704 61.1595 34.492 61.1595 32.956ZM91.6051 22.912V43H85.4491V40.264C84.8251 41.152 83.9731 41.872 82.8931 42.424C81.8371 42.952 80.6611 43.216 79.3651 43.216C77.8291 43.216 76.4731 42.88 75.2971 42.208C74.1211 41.512 73.2091 40.516 72.5611 39.22C71.9131 37.924 71.5891 36.4 71.5891 34.648V22.912H77.7091V33.82C77.7091 35.164 78.0571 36.208 78.7531 36.952C79.4491 37.696 80.3851 38.068 81.5611 38.068C82.7611 38.068 83.7091 37.696 84.4051 36.952C85.1011 36.208 85.4491 35.164 85.4491 33.82V22.912H91.6051ZM99.1229 20.824C98.0429 20.824 97.1549 20.512 96.4589 19.888C95.7869 19.24 95.4509 18.448 95.4509 17.512C95.4509 16.552 95.7869 15.76 96.4589 15.136C97.1549 14.488 98.0429 14.164 99.1229 14.164C100.179 14.164 101.043 14.488 101.715 15.136C102.411 15.76 102.759 16.552 102.759 17.512C102.759 18.448 102.411 19.24 101.715 19.888C101.043 20.512 100.179 20.824 99.1229 20.824ZM102.183 22.912V43H96.0269V22.912H102.183ZM125.58 32.632C125.58 33.208 125.544 33.808 125.472 34.432H111.54C111.636 35.68 112.032 36.64 112.728 37.312C113.448 37.96 114.324 38.284 115.356 38.284C116.892 38.284 117.96 37.636 118.56 36.34H125.112C124.776 37.66 124.164 38.848 123.276 39.904C122.412 40.96 121.32 41.788 120 42.388C118.68 42.988 117.204 43.288 115.572 43.288C113.604 43.288 111.852 42.868 110.316 42.028C108.78 41.188 107.58 39.988 106.716 38.428C105.852 36.868 105.42 35.044 105.42 32.956C105.42 30.868 105.84 29.044 106.68 27.484C107.544 25.924 108.744 24.724 110.28 23.884C111.816 23.044 113.58 22.624 115.572 22.624C117.516 22.624 119.244 23.032 120.756 23.848C122.268 24.664 123.444 25.828 124.284 27.34C125.148 28.852 125.58 30.616 125.58 32.632ZM119.28 31.012C119.28 29.956 118.92 29.116 118.2 28.492C117.48 27.868 116.58 27.556 115.5 27.556C114.468 27.556 113.592 27.856 112.872 28.456C112.176 29.056 111.744 29.908 111.576 31.012H119.28ZM141.068 22.696C143.42 22.696 145.292 23.464 146.684 25C148.1 26.512 148.808 28.6 148.808 31.264V43H142.688V32.092C142.688 30.748 142.34 29.704 141.644 28.96C140.948 28.216 140.012 27.844 138.836 27.844C137.66 27.844 136.724 28.216 136.028 28.96C135.332 29.704 134.984 30.748 134.984 32.092V43H128.828V22.912H134.984V25.576C135.608 24.688 136.448 23.992 137.504 23.488C138.56 22.96 139.748 22.696 141.068 22.696ZM164.282 37.78V43H161.15C158.918 43 157.178 42.46 155.93 41.38C154.682 40.276 154.058 38.488 154.058 36.016V28.024H151.61V22.912H154.058V18.016H160.214V22.912H164.246V28.024H160.214V36.088C160.214 36.688 160.358 37.12 160.646 37.384C160.934 37.648 161.414 37.78 162.086 37.78H164.282ZM186.647 32.632C186.647 33.208 186.611 33.808 186.539 34.432H172.607C172.703 35.68 173.099 36.64 173.795 37.312C174.515 37.96 175.391 38.284 176.423 38.284C177.959 38.284 179.027 37.636 179.627 36.34H186.179C185.843 37.66 185.231 38.848 184.343 39.904C183.479 40.96 182.387 41.788 181.067 42.388C179.747 42.988 178.271 43.288 176.639 43.288C174.671 43.288 172.919 42.868 171.383 42.028C169.847 41.188 168.647 39.988 167.783 38.428C166.919 36.868 166.487 35.044 166.487 32.956C166.487 30.868 166.907 29.044 167.747 27.484C168.611 25.924 169.811 24.724 171.347 23.884C172.883 23.044 174.647 22.624 176.639 22.624C178.583 22.624 180.311 23.032 181.823 23.848C183.335 24.664 184.511 25.828 185.351 27.34C186.215 28.852 186.647 30.616 186.647 32.632ZM180.347 31.012C180.347 29.956 179.987 29.116 179.267 28.492C178.547 27.868 177.647 27.556 176.567 27.556C175.535 27.556 174.659 27.856 173.939 28.456C173.243 29.056 172.811 29.908 172.643 31.012H180.347Z" fill="white"/>
</svg>
